<svg xmlns="http://www.w3.org/2000/svg" width="1280" height="256"><path fill="#dfdecf" d="M32 160h64v96H32a32 32 45 0 1-32-32v-32a32 32 135 0 1 32-32"/><path fill="#521955" d="M32 0h64v192H0V32A32 32 135 0 1 32 0"/><rect width="96" height="96" x="64" y="160" fill="#908ca3" ry="0"/><path fill="#dc263c" d="M64 0h96v192H64z"/><rect width="96" height="96" x="128" y="160" fill="#342c40" ry="0"/><path fill="#160b26" d="M192 160h32a32 32 45 0 1 32 32v32a32 32 135 0 1-32 32h-32z"/><path fill="#ff9b00" d="M128 0h96v192h-96z"/><path fill="#ffed47" d="M192 0h32a32 32 45 0 1 32 32v160h-64z"/><g fill="#f4f4e8"><path d="M1155.85 89.637q-5.348 0-9.037 3.689t-3.689 9.037 3.689 9.038 9.037 3.688h60.496q7.931 0 14.755 3.136 7.009 2.95 12.173 8.3 5.349 5.163 8.3 12.172 3.135 6.825 3.135 14.755 0 7.932-3.135 14.94-2.952 7.008-8.116 12.357-5.164 5.165-12.172 8.3-7.01 2.95-14.94 2.951h-86.133l-12.726-25.637h98.859q5.349 0 9.037-3.689 3.69-3.873 3.69-9.222t-3.69-9.037q-3.688-3.69-9.037-3.689h-60.496q-7.93 0-14.94-2.95-7.008-3.137-12.172-8.3-5.165-5.165-8.3-12.173-2.95-7.01-2.95-14.94t2.95-14.94q3.135-7.008 8.3-12.172 5.164-5.164 12.173-8.116Q1147.919 64 1155.85 64h82.132l12.726 25.637zm-122.709 51.273h-29.325q-5.35 0-9.038 3.69-3.689 3.688-3.689 9.037V192h-25.636v-38.363q0-7.93 2.95-14.94 3.135-7.008 8.3-12.172 5.164-5.164 12.173-8.116 7.009-3.135 14.94-3.135h61.417q5.35 0 9.038-3.689 3.69-3.873 3.689-9.222t-3.689-9.037q-3.69-3.69-9.037-3.69h-87.055L965.453 64h99.78q7.932 0 14.94 3.135 7.008 2.952 12.173 8.116t8.115 12.173q3.135 7.008 3.136 14.94 0 7.93-3.136 14.939-2.95 7.008-8.115 12.357-5.164 5.165-12.173 8.3-7.008 2.95-14.94 2.95m-173.711-25.728h57.913v25.636h-57.913zM887.504 192h-95.907q-7.931 0-14.94-2.951-7.008-3.135-12.173-8.3-5.164-5.164-8.3-12.173-2.95-7.008-2.95-14.94v-51.088q0-7.931 2.95-14.94 3.136-7.009 8.3-12.173 5.165-5.349 12.173-8.3Q783.666 64 791.597 64h83.181l12.726 25.637h-95.907q-5.349 0-9.038 3.873-3.689 3.689-3.689 9.038v51.089q0 5.349 3.69 9.222 3.688 3.689 9.037 3.689h83.181zm-252-102.363q-5.348 0-9.037 3.689t-3.689 9.037 3.689 9.038q3.69 3.688 9.037 3.688H696q7.931 0 14.755 3.136 7.009 2.95 12.173 8.3 5.349 5.163 8.3 12.172 3.135 6.825 3.135 14.755 0 7.932-3.135 14.94-2.952 7.008-8.116 12.357-5.163 5.165-12.172 8.3-7.01 2.95-14.94 2.951h-86.132l-12.727-25.637h98.86q5.347 0 9.037-3.689 3.688-3.873 3.688-9.222t-3.688-9.037q-3.69-3.69-9.038-3.689h-60.496q-7.93 0-14.94-2.95-7.009-3.137-12.172-8.3-5.165-5.165-8.3-12.173-2.95-7.01-2.95-14.94t2.95-14.94q3.135-7.008 8.3-12.172 5.164-5.164 12.173-8.116Q627.573 64 635.505 64h82.132l12.726 25.637zM473.695 64h102.547l12.726 25.637H545.81V192h-25.453V89.637h-33.752zM460.726 64v128H435.09l-89.637-91.428V192H320V64h25.452l89.637 90.875V64Z"/><path d="m1071.8 128 31.77 64h-32.092l-31.77-64"/></g></svg>