<svg xmlns="http://www.w3.org/2000/svg" width="1280" height="256"><path fill="#dfdecf" d="M32 160h64v96H32a32 32 45 0 1-32-32v-32a32 32 135 0 1 32-32"/><path fill="#521955" d="M32 0h64v192H0V32A32 32 135 0 1 32 0"/><rect width="96" height="96" x="64" y="160" fill="#908ca3" ry="0"/><path fill="#dc263c" d="M64 0h96v192H64z"/><rect width="96" height="96" x="128" y="160" fill="#342c40" ry="0"/><path fill="#160b26" d="M192 160h32a32 32 45 0 1 32 32v32a32 32 135 0 1-32 32h-32z"/><path fill="#ff9b00" d="M128 0h96v192h-96z"/><path fill="#ffed47" d="M192 0h32a32 32 45 0 1 32 32v160h-64z"/><g fill="#160b26"><path d="M1155.9 89.637q-5.349 0-9.037 3.689-3.69 3.689-3.69 9.037 0 5.35 3.69 9.038 3.688 3.689 9.037 3.689h60.496q7.931 0 14.755 3.135 7.009 2.95 12.173 8.3 5.349 5.163 8.3 12.173 3.135 6.824 3.135 14.755 0 7.93-3.135 14.939-2.952 7.008-8.115 12.357-5.165 5.164-12.173 8.3-7.01 2.95-14.94 2.95h-86.133l-12.726-25.637h98.859q5.348 0 9.037-3.688 3.69-3.874 3.689-9.222c-.001-5.348-1.23-6.579-3.69-9.038q-3.687-3.689-9.036-3.689H1155.9q-7.932 0-14.94-2.95-7.009-3.135-12.174-8.3-5.163-5.164-8.3-12.173-2.95-7.01-2.95-14.94t2.95-14.938q3.137-7.009 8.3-12.173 5.165-5.164 12.173-8.116Q1147.97 64 1155.9 64h82.134l12.726 25.637zM1033.1 140.91h-29.326q-5.348 0-9.038 3.689c-3.69 3.689-3.688 5.471-3.688 9.037V192H965.41v-38.363q0-7.93 2.95-14.939 3.137-7.008 8.3-12.173t12.173-8.115q7.01-3.135 14.94-3.135h61.418q5.35 0 9.038-3.69 3.689-3.872 3.689-9.221t-3.69-9.038q-3.687-3.688-9.037-3.688h-87.055L965.411 64h99.781q7.931 0 14.94 3.135 7.009 2.95 12.173 8.115c5.164 5.165 6.148 7.5 8.116 12.173q3.135 7.01 3.135 14.94t-3.135 14.938q-2.952 7.01-8.116 12.357-5.164 5.165-12.173 8.3-7.008 2.95-14.94 2.951M891.52 115.18h57.914v25.637H891.52zM887.5 192h-95.908q-7.93 0-14.939-2.951-7.009-3.135-12.173-8.3-5.164-5.164-8.3-12.173-2.95-7.008-2.95-14.939v-51.089q0-7.93 2.95-14.939 3.136-7.008 8.3-12.173 5.164-5.348 12.173-8.3 7.009-3.135 14.939-3.135h83.182L887.5 89.638h-95.908q-5.349 0-9.037 3.873-3.69 3.69-3.69 9.038v51.089q0 5.349 3.69 9.222 3.688 3.689 9.037 3.689h83.182zM635.5 89.637q-5.349 0-9.037 3.689c-3.688 3.689-3.69 5.472-3.69 9.037q0 5.35 3.69 9.038c3.69 3.688 5.471 3.689 9.037 3.689h60.496q7.931 0 14.755 3.135 7.008 2.95 12.173 8.3 5.349 5.163 8.3 12.173 3.135 6.824 3.135 14.755 0 7.93-3.135 14.939-2.952 7.008-8.116 12.357-5.163 5.164-12.173 8.3-7.008 2.95-14.939 2.95h-86.133l-12.726-25.637h98.86q5.348 0 9.037-3.688 3.69-3.874 3.689-9.222c-.001-5.348-1.23-6.579-3.69-9.038s-5.47-3.689-9.037-3.689H635.5q-7.93 0-14.939-2.95-7.008-3.135-12.173-8.3-5.163-5.164-8.3-12.173-2.95-7.01-2.95-14.94t2.95-14.938q3.137-7.009 8.3-12.173t12.173-8.116Q627.571 64 635.501 64h82.132l12.726 25.637zM473.69 64h102.55l12.726 25.637h-43.158v102.36h-25.452V89.637h-33.752zM460.73 64v128h-25.637l-89.637-91.428V192h-25.452V64h25.452l89.637 90.874V63.999z"/><path d="m1071.8 128 31.77 64h-32.092l-31.77-64"/></g></svg>